<?xml version="1.0" encoding="UTF-8" standalone="no"?>
<!-- Created with Inkscape (http://www.inkscape.org/) -->

<svg
   xmlns:dc="http://purl.org/dc/elements/1.1/"
   xmlns:cc="http://creativecommons.org/ns#"
   xmlns:rdf="http://www.w3.org/1999/02/22-rdf-syntax-ns#"
   xmlns:svg="http://www.w3.org/2000/svg"
   xmlns="http://www.w3.org/2000/svg"
   version="1.1"
   width="1024"
   height="345"
   id="svg4769">
  <defs
     id="defs4771">
    <clipPath
       id="clipPath3257">
      <path
         d="m 12.496,12.496 858.898,0 0,612.283 -858.898,0 0,-612.283 z"
         id="path3259" />
    </clipPath>
    <clipPath
       id="clipPath3299">
      <path
         d="m 12.496,12.496 858.898,0 0,612.283 -858.898,0 0,-612.283 z"
         id="path3301" />
    </clipPath>
    <clipPath
       id="clipPath3323">
      <path
         d="m 12.496,12.496 858.898,0 0,612.283 -858.898,0 0,-612.283 z"
         id="path3325" />
    </clipPath>
    <clipPath
       id="clipPath3363">
      <path
         d="m 12.496,12.496 858.898,0 0,612.283 -858.898,0 0,-612.283 z"
         id="path3365" />
    </clipPath>
    <clipPath
       id="clipPath3379">
      <path
         d="m 12.496,12.496 858.898,0 0,612.283 -858.898,0 0,-612.283 z"
         id="path3381" />
    </clipPath>
    <clipPath
       id="clipPath3395">
      <path
         d="m 12.496,12.496 858.898,0 0,612.283 -858.898,0 0,-612.283 z"
         id="path3397" />
    </clipPath>
    <clipPath
       id="clipPath3423">
      <path
         d="m 12.496,12.496 858.898,0 0,612.283 -858.898,0 0,-612.283 z"
         id="path3425" />
    </clipPath>
  </defs>
  <metadata
     id="metadata4774">
    <rdf:RDF>
      <cc:Work
         rdf:about="">
        <dc:format>image/svg+xml</dc:format>
        <dc:type
           rdf:resource="http://purl.org/dc/dcmitype/StillImage" />
        <dc:title></dc:title>
      </cc:Work>
    </rdf:RDF>
  </metadata>
  <g
     transform="translate(0,-423)"
     id="layer1">
    <g
       transform="matrix(8.5444163,0,0,-8.5444163,-5192.7449,1922.6304)"
       id="g4556">
      <g
         transform="translate(726.9646,141.6667)"
         id="g3443">
        <path
           d="m 0,0 c -0.419,-0.443 -0.94,-0.63 -1.522,-0.63 -0.573,0 -1.07,0.21 -1.449,0.591 -0.546,0.542 -0.538,1.156 -0.538,2.22 0,1.064 -0.008,1.678 0.538,2.221 0.379,0.38 0.859,0.59 1.449,0.59 1.172,0 1.856,-0.77 2.013,-1.717 l -0.847,0 c -0.14,0.606 -0.543,0.964 -1.166,0.964 -0.324,0 -0.62,-0.132 -0.815,-0.341 C -2.608,3.602 -2.67,3.29 -2.67,2.181 c 0,-1.111 0.062,-1.428 0.333,-1.723 0.195,-0.21 0.491,-0.336 0.815,-0.336 0.366,0 0.684,0.141 0.902,0.391 0.201,0.23 0.278,0.511 0.278,0.868 l 0,0.311 -1.18,0 0,0.715 2.02,0 0,-0.847 C 0.498,0.845 0.366,0.388 0,0"
           id="path3445"
           style="fill:#135ca1;fill-opacity:1;fill-rule:nonzero;stroke:none" />
      </g>
      <g
         id="g4349">
        <g
           id="g4247">
          <g
             transform="translate(630.1466,159.9722)"
             id="g3233">
            <path
               d="m 0,0 0,5.853 -1.143,0 0,-2.391 -1.981,0 0,2.391 -1.142,0 0,-5.853 1.142,0 0,2.45 1.981,0 0,-2.45 L 0,0 z"
               id="path3235"
               style="fill:#135ca1;fill-opacity:1;fill-rule:nonzero;stroke:none" />
          </g>
          <g
             transform="translate(636.3528,159.9722)"
             id="g3237">
            <path
               d="m 0,0 0,1.019 -2.714,0 0,1.422 2.311,0 0,1.021 -2.311,0 0,1.371 2.714,0 0,1.02 -3.856,0 L -3.856,0 0,0 z"
               id="path3239"
               style="fill:#135ca1;fill-opacity:1;fill-rule:nonzero;stroke:none" />
          </g>
          <g
             transform="translate(642.2536,159.9722)"
             id="g3241">
            <path
               d="m 0,0 0,1.019 -2.655,0 0,4.834 -1.143,0 L -3.798,0 0,0 z"
               id="path3243"
               style="fill:#135ca1;fill-opacity:1;fill-rule:nonzero;stroke:none" />
          </g>
          <g
             transform="translate(649.4717,159.9722)"
             id="g3245">
            <path
               d="m 0,0 0,5.853 -1.126,0 -1.522,-3.165 -1.528,3.165 -1.127,0 0,-5.853 1.143,0 0,3.411 1.126,-2.219 0.773,0 1.118,2.219 L -1.143,0 0,0 z"
               id="path3247"
               style="fill:#135ca1;fill-opacity:1;fill-rule:nonzero;stroke:none" />
          </g>
          <g
             transform="translate(656.0869,159.9722)"
             id="g3249">
            <path
               d="m 0,0 0,5.853 -1.143,0 0,-2.391 -1.981,0 0,2.391 -1.143,0 0,-5.853 1.143,0 0,2.45 1.981,0 0,-2.45 L 0,0 z"
               id="path3251"
               style="fill:#135ca1;fill-opacity:1;fill-rule:nonzero;stroke:none" />
          </g>
          <g
             id="g3253">
            <g
               clip-path="url(#clipPath3257)"
               id="g3255">
              <g
                 transform="translate(661.4211,162.8986)"
                 id="g3261">
                <path
                   d="m 0,0 c 0,-1.125 -0.066,-1.398 -0.289,-1.644 -0.164,-0.189 -0.419,-0.312 -0.731,-0.312 -0.313,0 -0.575,0.123 -0.741,0.312 -0.221,0.246 -0.278,0.519 -0.278,1.644 0,1.127 0.057,1.397 0.278,1.644 0.166,0.189 0.428,0.313 0.741,0.313 0.312,0 0.567,-0.124 0.731,-0.313 C -0.066,1.397 0,1.127 0,0 m 1.142,0 c 0,1.012 0.009,1.744 -0.583,2.335 -0.411,0.412 -0.913,0.64 -1.579,0.64 -0.666,0 -1.176,-0.228 -1.587,-0.64 C -3.198,1.744 -3.182,1.012 -3.182,0 c 0,-1.011 -0.016,-1.742 0.575,-2.335 0.411,-0.411 0.921,-0.641 1.587,-0.641 0.666,0 1.168,0.23 1.579,0.641 0.592,0.593 0.583,1.324 0.583,2.335"
                   id="path3263"
                   style="fill:#135ca1;fill-opacity:1;fill-rule:nonzero;stroke:none" />
              </g>
            </g>
          </g>
          <g
             transform="translate(668.5127,159.9722)"
             id="g3265">
            <path
               d="m 0,0 0,1.019 -2.655,0 0,4.834 -1.142,0 L -3.797,0 0,0 z"
               id="path3267"
               style="fill:#135ca1;fill-opacity:1;fill-rule:nonzero;stroke:none" />
          </g>
          <g
             transform="translate(673.5345,164.8055)"
             id="g3269">
            <path
               d="m 0,0 0,1.019 -4.201,0 0,-1.019 1.53,0 0,-4.832 1.143,0 0,4.832 L 0,0 z"
               id="path3271"
               style="fill:#135ca1;fill-opacity:1;fill-rule:nonzero;stroke:none" />
          </g>
          <g
             transform="translate(678.9429,159.9722)"
             id="g3273">
            <path
               d="m 0,0 0,1.019 -2.507,0 2.507,3.93 0,0.904 -3.74,0 0,-1.02 2.392,0 L -3.847,0.921 -3.847,0 0,0 z"
               id="path3275"
               style="fill:#135ca1;fill-opacity:1;fill-rule:nonzero;stroke:none" />
          </g>
          <path
             d="m 629.004,135.537 0.572,0 0,20.153 -0.572,0 0,-20.153 z"
             id="path3277"
             style="fill:#135ca1;fill-opacity:1;fill-rule:nonzero;stroke:none" />
          <g
             transform="translate(633.6384,150.1694)"
             id="g3279">
            <path
               d="m 0,0 0,0.722 2.554,4.052 -2.445,0 0,0.753 3.432,0 0,-0.682 -2.571,-4.092 2.571,0 L 3.541,0 0,0 z"
               id="path3281"
               style="fill:#135ca1;fill-opacity:1;fill-rule:nonzero;stroke:none" />
          </g>
          <g
             transform="translate(638.5683,150.1694)"
             id="g3283">
            <path
               d="m 0,0 0,5.527 3.531,0 0,-0.753 -2.692,0 0,-1.615 2.297,0 0,-0.745 -2.297,0 0,-1.661 2.692,0 L 3.531,0 0,0 z"
               id="path3285"
               style="fill:#135ca1;fill-opacity:1;fill-rule:nonzero;stroke:none" />
          </g>
          <g
             transform="translate(646.9377,150.1694)"
             id="g3287">
            <path
               d="m 0,0 -2.555,3.889 0,-3.889 -0.838,0 0,5.527 0.768,0 2.555,-3.881 0,3.881 0.838,0 L 0.768,0 0,0 z"
               id="path3289"
               style="fill:#135ca1;fill-opacity:1;fill-rule:nonzero;stroke:none" />
          </g>
          <g
             transform="translate(651.3153,154.9439)"
             id="g3291">
            <path
               d="m 0,0 0,-4.774 -0.838,0 0,4.774 -1.521,0 0,0.753 3.881,0 L 1.522,0 0,0 z"
               id="path3293"
               style="fill:#135ca1;fill-opacity:1;fill-rule:nonzero;stroke:none" />
          </g>
          <g
             id="g3295">
            <g
               clip-path="url(#clipPath3299)"
               id="g3297">
              <g
                 transform="translate(657.139,150.1694)"
                 id="g3303">
                <path
                   d="m 0,0 -1.165,2.329 -1.048,0 0,-2.329 -0.838,0 0,5.527 2.143,0 c 1.047,0 1.715,-0.674 1.715,-1.613 0,-0.793 -0.481,-1.298 -1.101,-1.47 L 0.978,0 0,0 z m -0.971,4.774 -1.242,0 0,-1.732 1.242,0 c 0.558,0 0.94,0.32 0.94,0.862 0,0.543 -0.382,0.87 -0.94,0.87"
                   id="path3305"
                   style="fill:#135ca1;fill-opacity:1;fill-rule:nonzero;stroke:none" />
              </g>
              <g
                 transform="translate(661.3623,150.1227)"
                 id="g3307">
                <path
                   d="m 0,0 c -1.126,0 -1.98,0.769 -1.98,1.908 l 0,3.666 0.839,0 0,-3.627 c 0,-0.735 0.449,-1.193 1.141,-1.193 0.691,0 1.15,0.458 1.15,1.193 l 0,3.627 0.838,0 0,-3.666 C 1.988,0.769 1.125,0 0,0"
                   id="path3309"
                   style="fill:#135ca1;fill-opacity:1;fill-rule:nonzero;stroke:none" />
              </g>
            </g>
          </g>
          <g
             transform="translate(669.0402,150.1694)"
             id="g3311">
            <path
               d="m 0,0 0,3.696 -1.273,-2.694 -0.621,0 -1.304,2.694 0,-3.696 -0.839,0 0,5.527 0.839,0 L -1.584,2.089 0,5.527 0.839,5.527 0.839,0 0,0 z"
               id="path3313"
               style="fill:#135ca1;fill-opacity:1;fill-rule:nonzero;stroke:none" />
          </g>
          <g
             transform="translate(674.6064,154.9439)"
             id="g3315">
            <path
               d="m 0,0 0,-1.684 2.298,0 0,-0.753 -2.298,0 0,-2.337 -0.839,0 0,5.527 3.534,0 L 2.695,0 0,0 z"
               id="path3317"
               style="fill:#135ca1;fill-opacity:1;fill-rule:nonzero;stroke:none" />
          </g>
          <g
             id="g3319">
            <g
               clip-path="url(#clipPath3323)"
               id="g3321">
              <g
                 transform="translate(680.4996,150.1227)"
                 id="g3327">
                <path
                   d="m 0,0 c -1.125,0 -1.98,0.769 -1.98,1.908 l 0,3.666 0.838,0 0,-3.627 c 0,-0.735 0.451,-1.193 1.142,-1.193 0.691,0 1.149,0.458 1.149,1.193 l 0,3.627 0.838,0 0,-3.666 C 1.987,0.769 1.125,0 0,0 m -0.474,6.149 -0.714,0 0,0.839 0.714,0 0,-0.839 z m 1.678,0 -0.714,0 0,0.839 0.714,0 0,-0.839 z"
                   id="path3329"
                   style="fill:#135ca1;fill-opacity:1;fill-rule:nonzero;stroke:none" />
              </g>
              <g
                 transform="translate(687.1918,150.1694)"
                 id="g3331">
                <path
                   d="m 0,0 -1.165,2.329 -1.048,0 0,-2.329 -0.838,0 0,5.527 2.142,0 c 1.048,0 1.716,-0.674 1.716,-1.613 0,-0.793 -0.481,-1.298 -1.102,-1.47 L 0.978,0 0,0 z m -0.972,4.774 -1.241,0 0,-1.732 1.241,0 c 0.56,0 0.941,0.32 0.941,0.862 0,0.543 -0.381,0.87 -0.941,0.87"
                   id="path3333"
                   style="fill:#135ca1;fill-opacity:1;fill-rule:nonzero;stroke:none" />
              </g>
            </g>
          </g>
          <path
             d="m 633.988,141.085 0.838,0 0,5.526 -0.838,0 0,-5.526 z"
             id="path3335"
             style="fill:#135ca1;fill-opacity:1;fill-rule:nonzero;stroke:none" />
          <g
             transform="translate(639.9582,141.0847)"
             id="g3337">
            <path
               d="m 0,0 -2.555,3.89 0,-3.89 -0.838,0 0,5.526 0.768,0 2.555,-3.88 0,3.88 0.838,0 L 0.768,0 0,0 z"
               id="path3339"
               style="fill:#135ca1;fill-opacity:1;fill-rule:nonzero;stroke:none" />
          </g>
          <g
             transform="translate(643.3041,145.8592)"
             id="g3341">
            <path
               d="m 0,0 0,-1.684 2.298,0 0,-0.755 -2.298,0 0,-2.336 -0.839,0 0,5.527 3.533,0 L 2.694,0 0,0 z"
               id="path3343"
               style="fill:#135ca1;fill-opacity:1;fill-rule:nonzero;stroke:none" />
          </g>
          <g
             transform="translate(647.3016,141.0847)"
             id="g3345">
            <path
               d="m 0,0 0,5.526 3.532,0 0,-0.751 -2.693,0 0,-1.616 2.298,0 0,-0.744 -2.298,0 0,-1.662 2.693,0 L 3.532,0 0,0 z"
               id="path3347"
               style="fill:#135ca1;fill-opacity:1;fill-rule:nonzero;stroke:none" />
          </g>
          <g
             transform="translate(655.6017,141.0847)"
             id="g3349">
            <path
               d="m 0,0 -1.552,2.724 -0.932,-1.119 0,-1.605 -0.839,0 0,5.526 0.839,0 0,-2.778 2.258,2.778 1.026,0 L -0.994,3.359 0.985,0 0,0 z"
               id="path3351"
               style="fill:#135ca1;fill-opacity:1;fill-rule:nonzero;stroke:none" />
          </g>
          <g
             transform="translate(659.5525,145.8592)"
             id="g3353">
            <path
               d="m 0,0 0,-4.775 -0.839,0 0,4.775 -1.52,0 0,0.752 3.882,0 L 1.523,0 0,0 z"
               id="path3355"
               style="fill:#135ca1;fill-opacity:1;fill-rule:nonzero;stroke:none" />
          </g>
          <path
             d="m 662.325,141.085 0.838,0 0,5.526 -0.838,0 0,-5.526 z"
             id="path3357"
             style="fill:#135ca1;fill-opacity:1;fill-rule:nonzero;stroke:none" />
          <g
             id="g3359">
            <g
               clip-path="url(#clipPath3363)"
               id="g3361">
              <g
                 transform="translate(668.1472,141.6279)"
                 id="g3367">
                <path
                   d="m 0,0 c -0.38,-0.38 -0.869,-0.59 -1.459,-0.59 -0.589,0 -1.071,0.21 -1.452,0.59 -0.544,0.543 -0.535,1.157 -0.535,2.219 0,1.064 -0.009,1.679 0.535,2.222 0.381,0.38 0.863,0.59 1.452,0.59 0.59,0 1.079,-0.21 1.459,-0.59 C 0.544,3.898 0.529,3.283 0.529,2.219 0.529,1.157 0.544,0.543 0,0 M -0.636,3.936 C -0.83,4.145 -1.133,4.278 -1.459,4.278 -1.785,4.278 -2.088,4.145 -2.283,3.936 -2.554,3.641 -2.608,3.33 -2.608,2.219 c 0,-1.11 0.054,-1.419 0.325,-1.715 0.195,-0.21 0.498,-0.341 0.824,-0.341 0.326,0 0.629,0.131 0.823,0.341 0.272,0.296 0.326,0.605 0.326,1.715 0,1.111 -0.054,1.422 -0.326,1.717"
                   id="path3369"
                   style="fill:#135ca1;fill-opacity:1;fill-rule:nonzero;stroke:none" />
              </g>
            </g>
          </g>
          <g
             transform="translate(673.6047,141.0847)"
             id="g3371">
            <path
               d="m 0,0 -2.553,3.89 0,-3.89 -0.839,0 0,5.526 0.768,0 2.555,-3.88 0,3.88 0.838,0 L 0.769,0 0,0 z"
               id="path3373"
               style="fill:#135ca1;fill-opacity:1;fill-rule:nonzero;stroke:none" />
          </g>
          <g
             id="g3375">
            <g
               clip-path="url(#clipPath3379)"
               id="g3377">
              <g
                 transform="translate(677.58,141.0372)"
                 id="g3383">
                <path
                   d="m 0,0 c -0.83,0 -1.429,0.194 -1.957,0.731 l 0.559,0.551 c 0.405,-0.404 0.847,-0.529 1.414,-0.529 0.722,0 1.141,0.311 1.141,0.847 0,0.242 -0.07,0.443 -0.218,0.574 -0.14,0.131 -0.28,0.187 -0.606,0.233 l -0.651,0.092 c -0.451,0.063 -0.808,0.219 -1.049,0.444 -0.271,0.255 -0.403,0.606 -0.403,1.055 0,0.964 0.7,1.623 1.847,1.623 0.73,0 1.243,-0.187 1.717,-0.628 L 1.258,4.463 C 0.916,4.79 0.521,4.891 0.054,4.891 c -0.652,0 -1.009,-0.372 -1.009,-0.862 0,-0.202 0.062,-0.38 0.21,-0.511 C -0.606,3.392 -0.38,3.3 -0.125,3.261 L 0.504,3.167 C 1.017,3.09 1.304,2.967 1.538,2.757 1.84,2.493 1.987,2.095 1.987,1.622 1.987,0.605 1.157,0 0,0"
                   id="path3385"
                   style="fill:#135ca1;fill-opacity:1;fill-rule:nonzero;stroke:none" />
              </g>
            </g>
          </g>
          <g
             transform="translate(681.8262,145.8592)"
             id="g3387">
            <path
               d="m 0,0 0,-1.684 2.299,0 0,-0.755 -2.299,0 0,-2.336 -0.837,0 0,5.527 3.532,0 L 2.695,0 0,0 z"
               id="path3389"
               style="fill:#135ca1;fill-opacity:1;fill-rule:nonzero;stroke:none" />
          </g>
          <g
             id="g3391">
            <g
               clip-path="url(#clipPath3395)"
               id="g3393">
              <g
                 transform="translate(689.0709,141.6279)"
                 id="g3399">
                <path
                   d="m 0,0 c -0.381,-0.38 -0.87,-0.59 -1.46,-0.59 -0.59,0 -1.072,0.21 -1.451,0.59 -0.545,0.543 -0.536,1.157 -0.536,2.219 0,1.064 -0.009,1.679 0.536,2.222 0.379,0.38 0.861,0.59 1.451,0.59 0.59,0 1.079,-0.21 1.46,-0.59 C 0.544,3.898 0.528,3.283 0.528,2.219 0.528,1.157 0.544,0.543 0,0 M -0.637,3.936 C -0.831,4.145 -1.134,4.278 -1.46,4.278 -1.786,4.278 -2.089,4.145 -2.284,3.936 -2.555,3.641 -2.61,3.33 -2.61,2.219 c 0,-1.11 0.055,-1.419 0.326,-1.715 0.195,-0.21 0.498,-0.341 0.824,-0.341 0.326,0 0.629,0.131 0.823,0.341 0.271,0.296 0.327,0.605 0.327,1.715 0,1.111 -0.056,1.422 -0.327,1.717"
                   id="path3401"
                   style="fill:#135ca1;fill-opacity:1;fill-rule:nonzero;stroke:none" />
              </g>
              <g
                 transform="translate(694.1874,141.0847)"
                 id="g3403">
                <path
                   d="m 0,0 -1.164,2.328 -1.048,0 0,-2.328 -0.839,0 0,5.526 2.143,0 C 0.14,5.526 0.807,4.852 0.807,3.911 0.807,3.12 0.325,2.616 -0.295,2.445 L 0.977,0 0,0 z m -0.97,4.775 -1.242,0 0,-1.733 1.242,0 c 0.559,0 0.939,0.318 0.939,0.862 0,0.543 -0.38,0.871 -0.939,0.871"
                   id="path3405"
                   style="fill:#135ca1;fill-opacity:1;fill-rule:nonzero;stroke:none" />
              </g>
              <g
                 transform="translate(697.9839,141.0372)"
                 id="g3407">
                <path
                   d="m 0,0 c -0.83,0 -1.429,0.194 -1.957,0.731 l 0.559,0.551 c 0.404,-0.404 0.847,-0.529 1.413,-0.529 0.722,0 1.142,0.311 1.142,0.847 0,0.242 -0.07,0.443 -0.218,0.574 C 0.8,2.305 0.659,2.361 0.334,2.407 l -0.653,0.092 c -0.449,0.063 -0.807,0.219 -1.047,0.444 -0.271,0.255 -0.404,0.606 -0.404,1.055 0,0.964 0.699,1.623 1.848,1.623 0.73,0 1.242,-0.187 1.715,-0.628 L 1.258,4.463 C 0.916,4.79 0.52,4.891 0.054,4.891 c -0.652,0 -1.009,-0.372 -1.009,-0.862 0,-0.202 0.062,-0.38 0.209,-0.511 C -0.606,3.392 -0.38,3.3 -0.124,3.261 L 0.505,3.167 C 1.017,3.09 1.304,2.967 1.537,2.757 1.84,2.493 1.988,2.095 1.988,1.622 1.988,0.605 1.157,0 0,0"
                   id="path3409"
                   style="fill:#135ca1;fill-opacity:1;fill-rule:nonzero;stroke:none" />
              </g>
              <g
                 transform="translate(703.1774,141.0372)"
                 id="g3411">
                <path
                   d="m 0,0 c -0.573,0 -1.072,0.21 -1.451,0.591 -0.545,0.542 -0.536,1.156 -0.536,2.218 0,1.064 -0.009,1.679 0.536,2.223 0.379,0.38 0.878,0.589 1.451,0.589 1.018,0 1.778,-0.598 1.973,-1.701 l -0.854,0 C 0.986,4.48 0.613,4.869 0,4.869 -0.325,4.869 -0.621,4.744 -0.814,4.534 -1.086,4.24 -1.149,3.92 -1.149,2.809 -1.149,1.7 -1.086,1.382 -0.814,1.087 -0.621,0.878 -0.325,0.753 0,0.753 c 0.613,0 0.994,0.389 1.126,0.947 l 0.847,0 C 1.786,0.599 1.002,0 0,0"
                   id="path3413"
                   style="fill:#135ca1;fill-opacity:1;fill-rule:nonzero;stroke:none" />
              </g>
            </g>
          </g>
          <g
             transform="translate(709.6451,141.0847)"
             id="g3415">
            <path
               d="m 0,0 0,2.415 -2.244,0 0,-2.415 -0.838,0 0,5.526 0.838,0 0,-2.359 2.244,0 0,2.359 0.838,0 L 0.838,0 0,0 z"
               id="path3417"
               style="fill:#135ca1;fill-opacity:1;fill-rule:nonzero;stroke:none" />
          </g>
          <g
             id="g3419">
            <g
               clip-path="url(#clipPath3423)"
               id="g3421">
              <g
                 transform="translate(714.1166,141.0372)"
                 id="g3427">
                <path
                   d="m 0,0 c -1.125,0 -1.98,0.77 -1.98,1.911 l 0,3.663 0.839,0 0,-3.626 c 0,-0.737 0.449,-1.195 1.141,-1.195 0.692,0 1.149,0.458 1.149,1.195 l 0,3.626 0.838,0 0,-3.663 C 1.987,0.77 1.127,0 0,0"
                   id="path3429"
                   style="fill:#135ca1;fill-opacity:1;fill-rule:nonzero;stroke:none" />
              </g>
            </g>
          </g>
          <g
             transform="translate(721.1505,141.0847)"
             id="g3431">
            <path
               d="m 0,0 -2.555,3.89 0,-3.89 -0.838,0 0,5.526 0.768,0 2.554,-3.88 0,3.88 0.841,0 L 0.77,0 0,0 z"
               id="path3433"
               style="fill:#135ca1;fill-opacity:1;fill-rule:nonzero;stroke:none" />
          </g>
        </g>
        <g
           transform="translate(609.8829,159.6377)"
           id="g3447">
          <path
             d="M 0,0 C 0.145,5.663 4.395,10.305 9.883,11.059 9.582,10.107 9.307,8.984 9.106,7.667 4.768,7.381 1.298,3.922 0.993,-0.409 0.673,-0.301 0.339,-0.168 0,0 M -1.562,1.014 C -1.541,8.699 4.5,14.969 12.097,15.351 11.861,15.096 11.026,14.098 10.25,12.102 4.164,11.639 -0.672,6.701 -0.973,0.571 -1.17,0.706 -1.366,0.852 -1.562,1.014 m 3.639,-1.71 C 2.301,3.082 5.232,6.128 8.956,6.532 8.836,5.453 8.766,4.258 8.766,2.945 8.71,2.947 8.653,2.948 8.596,2.948 6.233,2.948 4.245,1.344 3.659,-0.835 3.329,-0.841 2.766,-0.826 2.077,-0.696"
             id="path3449"
             style="fill:#135ca1;fill-opacity:1;fill-rule:nonzero;stroke:none" />
        </g>
      </g>
    </g>
  </g>
</svg>
